<svg xmlns="http://www.w3.org/2000/svg" viewBox="0 0 1200 760"><rect width="1200" height="760" fill="#f7f7f5"/><path d="M170 425c90-175 265-206 374-102 57 54 132 62 210 19 111-61 229 4 274 143" fill="none" stroke="#111" stroke-width="10" stroke-linecap="round" opacity=".88"/><path d="M168 502c99-154 272-173 389-72 57 50 117 61 204 21 102-47 220 6 272 111" fill="none" stroke="#0055ff" stroke-width="5" stroke-linecap="round" opacity=".9"/><g fill="#111"><circle cx="346" cy="329" r="18"/><circle cx="532" cy="384" r="14"/><circle cx="690" cy="374" r="14"/><circle cx="853" cy="384" r="18"/></g><text x="80" y="120" font-family="Inter,Arial" font-size="54" font-weight="700" fill="#111">EEG + Robotic Teleoperation</text><text x="80" y="176" font-family="Inter,Arial" font-size="24" fill="#555">real-time cognitive load estimation</text><g transform="translate(80 590)"><rect width="1040" height="6" rx="3" fill="#ddd"/><rect width="720" height="6" rx="3" fill="#0055ff"/></g></svg>
